# xmcd
#
# Track frame offsets: 
#        150
#        12062
#        23145
#        34931
#        59264
#        76780
#        90321
#        108483
#        119832
#        133849
#        148046
#        161438
#        175650
#        185882
#        202739
#        218741
#        230381
#        250265
#        261248
#        275279
#
# Disc length: 3832 seconds
#
# Revision: 2
# Processed by: cddbd v1.5.2PL0 Copyright (c) Steve Scherf et al.
# Submitted via: ExactAudioCopyFreeDBPlugin 1.0
#
DISCID=120ef614
DTITLE=Wim Sonneveld - Zijn 100 Beste Liedjes van A tot Z - CD 1, 2010
DYEAR=2010
DGENRE=Hollands
TTITLE0=Aan de amsterdamse grachten
TTITLE1=Annemarie
TTITLE2=Als je huilt ben je een stakker
TTITLE3=Als je groter bent
TTITLE4=Amstelroom
TTITLE5=A room with a view
TTITLE6=Burgemeester Beekmanlaan
TTITLE7=Carolien
TTITLE8=C' est la romance
TTITLE9=C'était bien (Le p'tit bal perdu)
TTITLE10=Carolientje
TTITLE11=Charm
TTITLE12=Cradlesong
TTITLE13=Dit wordt een avond
TTITLE14=Daar is de Orgelman (Het lied van Willem Parel)
TTITLE15=De appelboom (Chevalier de Paris)
TTITLE16=Dora
TTITLE17=Dat wij verschillen van elkaar
TTITLE18=De eerste klant
TTITLE19=De koningin van Lombardije
EXTD=
EXTT0=
EXTT1=
EXTT2=
EXTT3=
EXTT4=
EXTT5=
EXTT6=
EXTT7=
EXTT8=
EXTT9=
EXTT10=
EXTT11=
EXTT12=
EXTT13=
EXTT14=
EXTT15=
EXTT16=
EXTT17=
EXTT18=
EXTT19=
PLAYORDER=
